<svg width="31" height="30" viewBox="0 0 31 30" fill="none" xmlns="http://www.w3.org/2000/svg">
<g clip-path="url(#clip0_216_4)">
<path d="M30.8572 15C30.8572 23.2843 24.1414 30 15.8572 30C7.57291 30 0.857178 23.2843 0.857178 15C0.857178 6.71573 7.57291 0 15.8572 0C24.1414 0 30.8572 6.71573 30.8572 15Z" fill="white"/>
<path fill-rule="evenodd" clip-rule="evenodd" d="M13.2743 17.8297H16.2848C17.0076 17.8297 17.5931 18.4511 17.5931 19.2174C17.5931 19.9799 17.0076 20.5975 16.2848 20.5975H11.5721C10.7047 20.5975 10 19.8541 10 18.9391V10.6546V10.6394C10 9.73581 10.7047 9 11.5721 9H20.7336C21.4564 9 22.0419 9.61762 22.0419 10.3801C22.0419 11.1426 21.4564 11.7602 20.7336 11.7602H13.2743C12.9129 11.7602 12.6202 12.069 12.6202 12.4503V17.1434C12.6238 17.5247 12.9129 17.8297 13.2743 17.8297ZM16.5485 13.6892H20.7335C21.4599 13.6892 22.0454 14.3069 22.0454 15.0694V19.2097C22.0454 19.9722 21.4599 20.5898 20.7371 20.5898C20.0143 20.5898 19.4289 19.9722 19.4289 19.2097V17.1395C19.4289 16.7583 19.1361 16.4495 18.7747 16.4495H16.5485C15.8257 16.4495 15.1101 15.8319 15.1101 15.0694C15.1101 14.3069 15.8257 13.6892 16.5485 13.6892Z" fill="black"/>
</g>
<defs>
<clipPath id="clip0_216_4">
<rect width="31" height="30" fill="white"/>
</clipPath>
</defs>
</svg>
