<svg width="84" height="92" viewBox="0 0 84 92" fill="none" xmlns="http://www.w3.org/2000/svg">
<path d="M43.8996 58.09H23.0063C20.4981 58.09 18.4915 56.0834 18.4664 53.5752V22.6992C18.4664 20.191 20.4981 18.1594 23.0063 18.1594H74.7756C79.792 18.1594 83.8553 14.0961 83.8553 9.07969C83.8553 4.06329 79.792 0 74.7756 0H11.1927C5.17298 0 0.281982 4.84083 0.281982 10.7853C0.281982 10.8103 0.281982 10.8605 0.281982 10.8856V65.3888C0.281982 71.4085 5.17298 76.2995 11.1927 76.2995H43.8996C48.916 76.2995 52.9793 72.2362 52.9793 67.2198C52.9793 62.1783 48.916 58.09 43.8996 58.09Z" fill="white"/>
<path d="M74.7747 30.8506H45.7297C40.7133 30.8506 35.7471 34.9139 35.7471 39.9303C35.7471 44.9467 40.7133 49.01 45.7297 49.01H61.1802C63.6884 49.01 65.7201 51.0416 65.7201 53.5498V67.1694C65.7201 72.1858 69.7834 76.2491 74.7998 76.2491C79.8162 76.2491 83.8795 72.1858 83.8795 67.1694V39.9303C83.8795 34.9139 79.8162 30.8506 74.7747 30.8506Z" fill="white"/>
<path fill-rule="evenodd" clip-rule="evenodd" d="M40.2114 82.7695C40.2114 82.7695 39.9104 82.7695 39.2834 82.7695C38.9824 82.7695 38.6814 83.3715 38.6814 83.3715C38.6814 83.3715 35.9976 87.8612 35.9224 87.9866C35.8471 88.112 35.6966 88.112 35.6214 87.9866C35.3706 87.5602 32.8624 83.3715 32.8624 83.3715C32.8624 83.3715 32.5614 82.7695 32.2604 82.7695C31.6584 82.7695 31.3324 82.7695 31.3324 82.7695C31.3324 82.7695 31.0314 82.7695 31.0314 83.0705C31.0314 83.3715 31.0314 91.6736 31.0314 91.6736C31.0314 91.6736 31.0314 91.9746 31.3324 91.9746C31.6333 91.9746 32.2604 91.9746 32.2604 91.9746C32.2604 91.9746 32.5614 91.9746 32.5614 91.6736V86.3312C32.5614 85.8295 32.8624 86.1556 32.8624 86.1556C32.8624 86.1556 34.7937 89.3912 35.4207 90.4446C35.5963 90.7205 35.9475 90.7456 36.123 90.4446C36.725 89.3912 38.6814 86.1556 38.6814 86.1556C38.6814 86.1556 38.9824 85.8045 38.9824 86.3312C38.9824 86.9582 38.9824 91.6736 38.9824 91.6736C38.9824 91.6736 38.9824 91.9746 39.2834 91.9746C39.5843 91.9746 40.2114 91.9746 40.2114 91.9746C40.2114 91.9746 40.5124 91.9746 40.5124 91.6736V83.0705C40.5375 82.7695 40.2114 82.7695 40.2114 82.7695ZM49.7426 82.7695C49.4416 82.7695 43.5975 82.7695 43.5975 82.7695C43.5975 82.7695 42.9955 82.7695 42.9955 83.3715C42.9955 83.9735 42.9955 91.3476 42.9955 91.3476C42.9955 91.3476 42.9955 91.9746 43.5975 91.9746C44.1994 91.9746 49.7426 91.9746 49.7426 91.9746C49.7426 91.9746 50.0435 91.9746 50.0435 91.6736C50.0435 91.3727 50.0435 90.7456 50.0435 90.7456C50.0435 90.7456 50.0435 90.4446 49.7426 90.4446C49.4416 90.4446 44.8265 90.4446 44.8265 90.4446C44.8265 90.4446 44.5255 90.4446 44.5255 90.1436C44.5255 89.8427 44.5255 88.3127 44.5255 88.3127C44.5255 88.3127 44.5255 88.0117 44.8265 88.0117C45.1275 88.0117 47.8865 88.0117 47.8865 88.0117C47.8865 88.0117 48.1875 88.0117 48.1875 87.7107C48.1875 87.4097 48.1875 86.7827 48.1875 86.7827C48.1875 86.7827 48.1875 86.4817 47.8865 86.4817C47.5855 86.4817 44.8265 86.4817 44.8265 86.4817C44.8265 86.4817 44.5255 86.4817 44.5255 86.1807C44.5255 85.8797 44.5255 84.6507 44.5255 84.6507C44.5255 84.6507 44.5255 84.3497 44.8265 84.3497C45.1275 84.3497 49.7426 84.3497 49.7426 84.3497C49.7426 84.3497 50.0435 84.3497 50.0435 84.0487C50.0435 83.7477 50.0435 83.1207 50.0435 83.1207C50.0435 83.1207 50.0435 82.7695 49.7426 82.7695ZM27.0183 82.7695C25.4883 82.7695 21.5002 82.7695 21.5002 82.7695C21.5002 82.7695 19.9702 82.7695 19.9702 84.2995C19.9702 85.8295 19.9702 90.4446 19.9702 90.4446C19.9702 90.4446 19.9702 91.9746 21.5002 91.9746C23.0302 91.9746 27.0183 91.9746 27.0183 91.9746C27.0183 91.9746 28.5483 91.9746 28.5483 90.4446C28.5483 88.9146 28.5483 84.2995 28.5483 84.2995C28.5483 84.2995 28.5483 82.7695 27.0183 82.7695ZM27.0183 89.8176C27.0183 90.4446 26.3912 90.4446 26.3912 90.4446C26.3912 90.4446 22.7042 90.4446 22.1022 90.4446C21.4751 90.4446 21.4751 89.8176 21.4751 89.8176C21.4751 89.8176 21.4751 85.5286 21.4751 84.9015C21.4751 84.2995 22.1022 84.2995 22.1022 84.2995C22.1022 84.2995 25.7892 84.2995 26.3912 84.2995C27.0183 84.2995 27.0183 84.9015 27.0183 84.9015C27.0183 84.9015 27.0183 89.2156 27.0183 89.8176ZM17.7881 82.7695C17.7881 82.7695 12.27 82.7695 11.643 82.7695C11.041 82.7695 11.041 83.3715 11.041 83.3715C11.041 83.3715 11.041 90.7456 11.041 91.3476C11.041 91.9746 11.643 91.9746 11.643 91.9746C11.643 91.9746 17.4871 91.9746 17.7881 91.9746C18.0891 91.9746 18.0891 91.6736 18.0891 91.6736C18.0891 91.6736 18.0891 91.0717 18.0891 90.7456C18.0891 90.4446 17.7881 90.4446 17.7881 90.4446C17.7881 90.4446 13.173 90.4446 12.872 90.4446C12.571 90.4446 12.571 90.1436 12.571 90.1436C12.571 90.1436 12.571 88.6136 12.571 88.3127C12.571 88.0117 12.872 88.0117 12.872 88.0117C12.872 88.0117 15.631 88.0117 15.932 88.0117C16.233 88.0117 16.233 87.7107 16.233 87.7107V86.7827C16.233 86.7827 16.233 86.4817 15.932 86.4817H12.872C12.571 86.4817 12.571 86.1807 12.571 86.1807C12.571 86.1807 12.571 84.9517 12.571 84.6507C12.571 84.3497 12.872 84.3497 12.872 84.3497C12.872 84.3497 17.4871 84.3497 17.7881 84.3497C18.0891 84.3497 18.0891 84.0487 18.0891 84.0487C18.0891 84.0487 18.0891 83.4467 18.0891 83.1207C18.1141 82.7695 17.7881 82.7695 17.7881 82.7695ZM8.28199 82.7695C8.28199 82.7695 3.36591 82.7695 1.83591 82.7695C0.305906 82.7695 0.305908 84.2995 0.305908 84.2995C0.305908 84.2995 0.305908 88.9146 0.305908 90.4446C0.305908 91.9746 1.83591 91.9746 1.83591 91.9746C1.83591 91.9746 5.52297 91.9746 7.05297 91.9746C8.58298 91.9746 8.58298 90.4446 8.58298 90.4446C8.58298 90.4446 8.58298 87.9866 8.58298 87.3846C8.58298 86.7576 7.981 86.7576 7.981 86.7576C7.981 86.7576 4.921 86.7576 4.59493 86.7576C4.29395 86.7576 4.29395 87.0586 4.29395 87.0586C4.29395 87.0586 4.29395 87.6856 4.29395 87.9866C4.29395 88.2876 4.59493 88.2876 4.59493 88.2876C4.59493 88.2876 6.12494 88.2876 6.75199 88.2876C7.05297 88.2876 7.05297 88.5886 7.05297 88.5886C7.05297 88.5886 7.05297 89.1905 7.05297 89.8176C7.05297 90.4446 6.45101 90.4446 6.45101 90.4446C6.45101 90.4446 3.06493 90.4446 2.46296 90.4446C1.86099 90.4446 1.86099 89.8176 1.86099 89.8176C1.86099 89.8176 1.86099 85.5286 1.86099 84.9015C1.86099 84.2995 2.46296 84.2995 2.46296 84.2995C2.46296 84.2995 7.98101 84.2995 8.30707 84.2995C8.60806 84.2995 8.60805 83.9985 8.60805 83.9985C8.60805 83.9985 8.60805 83.3966 8.60805 83.0705C8.58297 82.7695 8.28199 82.7695 8.28199 82.7695ZM83.829 91.3727C83.528 90.7707 80.769 83.9986 80.4429 83.3966C80.142 82.7946 79.841 82.7946 79.841 82.7946H78.9129C78.9129 82.7946 78.612 82.7946 78.311 83.3966C78.01 83.9986 74.9249 91.3727 74.9249 91.3727C74.9249 91.3727 74.6239 91.9997 74.9249 91.9997C75.2259 91.9997 76.0536 91.9997 76.0536 91.9997C76.0536 91.9997 76.2793 91.9997 76.4298 91.6736C76.6054 91.3476 77.0067 90.4446 77.1572 90.1436C77.3328 89.8427 77.5334 89.8427 77.5334 89.8427H80.9948C80.9948 89.8427 81.2957 89.8427 81.4462 90.1436C81.5967 90.4446 82.2238 91.6736 82.2238 91.6736C82.2238 91.6736 82.2739 91.9997 82.6 91.9997C82.901 91.9997 83.829 91.9997 83.829 91.9997C83.829 91.9997 84.13 91.9746 83.829 91.3727ZM80.3175 88.2876C80.0166 88.2876 78.4865 88.2876 78.1354 88.2876C77.8093 88.2876 77.7842 88.0869 77.9598 87.6856C78.1605 87.2843 78.938 85.4282 79.0634 85.1523C79.1889 84.8513 79.4397 84.9015 79.5651 85.2276C79.7156 85.5536 80.3677 87.2592 80.5433 87.7107C80.769 88.1622 80.6185 88.2876 80.3175 88.2876ZM58.9477 82.7695C58.6467 82.7695 51.8745 82.7695 51.8745 82.7695C51.8745 82.7695 51.5736 82.7695 51.5736 83.0705C51.5736 83.3715 51.5736 83.9985 51.5736 83.9985C51.5736 83.9985 51.5735 84.2995 51.8745 84.2995C52.1755 84.2995 54.3326 84.2995 54.3326 84.2995C54.3326 84.2995 54.6336 84.2995 54.6336 84.6005C54.6336 84.9015 54.6336 91.6736 54.6336 91.6736C54.6336 91.6736 54.6336 91.9746 54.9345 91.9746H55.8626C56.1636 91.9746 56.1636 91.6736 56.1636 91.6736V84.6005C56.1636 84.6005 56.1636 84.2995 56.4645 84.2995C56.7655 84.2995 58.9226 84.2995 58.9226 84.2995C58.9226 84.2995 59.2236 84.2995 59.2236 83.9985C59.2236 83.6976 59.2236 83.0705 59.2236 83.0705C59.2236 83.0705 59.2486 82.7695 58.9477 82.7695ZM72.7678 82.7695C72.4669 82.7695 71.8398 82.7695 71.8398 82.7695C71.8398 82.7695 71.5388 82.7695 71.5388 83.0705C71.5388 83.3715 71.5388 91.6736 71.5388 91.6736C71.5388 91.6736 71.5388 91.9746 71.8398 91.9746C72.1408 91.9746 72.7678 91.9746 72.7678 91.9746C72.7678 91.9746 73.0688 91.9746 73.0688 91.6736C73.0688 91.3727 73.0688 83.0705 73.0688 83.0705C73.0688 83.0705 73.0688 82.7695 72.7678 82.7695ZM66.9237 89.2156C66.9237 89.2156 66.2465 88.6136 66.7733 88.6136C67.0742 88.6136 67.2247 88.6136 67.2247 88.6136C67.2247 88.6136 68.7547 88.6136 68.7547 87.0836C68.7547 85.5536 68.7547 84.3246 68.7547 84.3246C68.7547 84.3246 68.7547 82.7946 67.2247 82.7946C65.6947 82.7946 61.7067 82.7946 61.7067 82.7946C61.7067 82.7946 61.1047 82.7946 61.1047 83.3966C61.1047 83.9986 61.1047 91.6987 61.1047 91.6987C61.1047 91.6987 61.1047 91.9997 61.4057 91.9997C61.7067 91.9997 62.3337 91.9997 62.3337 91.9997C62.3337 91.9997 62.6347 91.9997 62.6347 91.6987C62.6347 91.3977 62.6347 88.9397 62.6347 88.9397C62.6347 88.9397 62.6347 88.6387 62.9357 88.6387H63.8637C64.1647 88.6387 64.4657 88.6387 64.7918 88.9397C65.0928 89.2407 67.3752 91.8241 67.3752 91.8241C67.3752 91.8241 67.5006 91.9997 67.8518 91.9997C68.1528 91.9997 69.0808 91.9997 69.0808 91.9997C69.0808 91.9997 69.3818 91.9997 69.0808 91.6987C68.7798 91.3727 66.9237 89.2156 66.9237 89.2156ZM62.9357 87.0586C62.6347 87.0586 62.6347 86.7576 62.6347 86.7576C62.6347 86.7576 62.6347 84.9266 62.6347 84.6005C62.6347 84.2995 62.9357 84.2995 62.9357 84.2995C62.9357 84.2995 65.9957 84.2995 66.6227 84.2995C67.2498 84.2995 67.2247 84.9015 67.2247 84.9015C67.2247 84.9015 67.2247 85.8295 67.2247 86.4315C67.2247 87.0335 66.6227 87.0335 66.6227 87.0335C66.6227 87.0335 63.2618 87.0586 62.9357 87.0586Z" fill="white"/>
</svg>
