<svg width="119" height="133" viewBox="0 0 119 133" fill="none" xmlns="http://www.w3.org/2000/svg">
<path d="M41.3857 0.0957031C41.3857 0.744631 41.3857 1.23251 41.3857 1.72039C41.381 18.1283 41.3715 34.5362 41.3763 50.9442C41.381 60.3418 41.4047 69.7394 41.4189 79.137C41.4189 79.7054 41.4094 80.2785 41.3242 80.8375C41.1726 81.8322 40.6137 82.3958 39.6284 82.5569C39.2211 82.6232 38.7995 82.6185 38.3827 82.6185C26.8251 82.6137 15.2676 82.609 3.71003 82.6042C1.93851 82.6042 1.25642 81.9222 1.25642 80.1127C1.25168 72.5719 1.26116 65.0311 1.26589 57.4903C1.27063 51.9957 1.27537 46.5011 1.27537 41.0066C1.27537 31.069 4.58158 22.3156 10.763 14.6089C14.7797 9.60226 19.8385 5.87448 25.6741 3.34508C30.3066 1.33672 35.1807 0.0246501 40.32 0.100437C40.6136 0.100437 40.9121 0.0957031 41.3857 0.0957031Z" fill="white"/>
<path d="M82.978 48.3431C69.7437 48.3905 58.8966 37.5577 58.8777 24.276C58.8635 10.8095 69.4689 0.0761853 82.8643 0.000398175C96.4208 -0.075389 107.211 10.6769 107.201 24.2807C107.197 37.1598 96.7902 48.3858 82.978 48.3431Z" fill="white"/>
<path d="M58.0479 82.2486C55.4712 82.2486 52.8991 82.2486 50.3224 82.2486C49.9434 82.2486 49.5645 82.2534 49.1903 82.2107C48.1719 82.0923 47.7361 81.6565 47.5656 80.6334C47.5372 80.4487 47.5182 80.2592 47.5135 80.0697C47.343 71.25 50.6966 64.1544 57.9721 59.0767C61.2831 56.7652 65.0724 55.761 69.0844 55.5479C73.7501 55.3016 78.0984 56.391 82.1577 58.6599C84.4029 59.9151 86.6055 61.2556 88.8649 62.4824C89.888 63.0366 90.9822 63.5008 92.0953 63.8418C93.8053 64.3628 95.1315 63.8229 96.1073 62.3119C96.5525 61.6156 96.9173 60.8577 97.2536 60.0998C97.7936 58.892 98.6651 58.3236 100.01 58.333C105.311 58.3615 110.616 58.3378 115.916 58.3473C118.09 58.352 118.63 58.8967 118.583 61.0377C118.436 68.0148 116.243 74.1773 111.251 79.1935C108.328 82.1302 104.771 83.807 100.73 84.6454C94.0421 86.0333 87.8891 84.7638 82.1198 81.2302C80.1541 80.0271 78.1505 78.8714 76.1326 77.7535C75.4127 77.3556 74.6216 77.043 73.8211 76.8535C72.0733 76.4414 70.567 77.1519 69.7097 78.7151C69.3828 79.3119 69.0702 79.9229 68.8476 80.5624C68.426 81.7797 67.5876 82.2676 66.3419 82.2581C63.5756 82.2344 60.8142 82.2486 58.0479 82.2486Z" fill="white"/>
<path d="M54.8833 132.492C55.1533 131.99 55.3096 131.658 55.4991 131.35C56.5506 129.64 57.5359 127.888 58.6916 126.254C59.4353 125.197 59.4921 124.359 58.7295 123.298C57.6732 121.825 56.7496 120.252 55.7738 118.722C55.5701 118.405 55.3807 118.083 55.1817 117.761C55.788 117.5 58.1374 117.344 58.6158 117.59C58.8953 117.737 59.1321 118.021 59.3026 118.296C60.0747 119.509 60.8326 120.731 61.562 121.972C62.5283 123.615 62.6183 123.677 64.8114 123.412C64.8114 121.526 64.8114 119.622 64.8114 117.666C66.0524 117.666 67.1371 117.666 68.3781 117.666C68.3781 119.575 68.3781 121.479 68.3781 123.535C69.0034 123.535 69.4818 123.506 69.9602 123.544C70.5665 123.592 70.9454 123.326 71.2439 122.815C72.0633 121.408 72.9633 120.049 73.7401 118.623C74.2185 117.747 74.8485 117.344 75.8337 117.406C76.5774 117.453 77.3258 117.415 78.221 117.415C78.0031 117.813 77.8468 118.14 77.6573 118.448C76.5726 120.224 75.5069 122.014 74.3843 123.767C73.9769 124.406 73.9959 124.899 74.4174 125.52C75.7769 127.523 77.0889 129.56 78.4152 131.587C78.5336 131.767 78.6094 131.966 78.7563 132.255C77.4584 132.43 76.2553 132.43 75.0711 132.246C74.6922 132.189 74.2801 131.8 74.0432 131.455C73.3138 130.394 72.6317 129.299 71.9922 128.186C70.9596 126.396 70.8839 126.339 68.6103 126.623C68.6103 128.437 68.6103 130.27 68.6103 132.175C67.4071 132.175 66.3319 132.175 65.1525 132.175C65.0435 130.289 64.9393 128.452 64.8304 126.495C64.3377 126.495 63.9304 126.524 63.5278 126.491C62.8836 126.438 62.4573 126.704 62.1399 127.258C61.4057 128.537 60.5958 129.778 59.9042 131.08C59.3216 132.179 58.5732 132.738 57.2659 132.525C56.5554 132.392 55.7975 132.492 54.8833 132.492Z" fill="white"/>
<path d="M118.615 111.643C117.445 111.738 116.394 111.828 115.181 111.927C115.072 110.34 115.143 108.806 115.129 107.271C115.115 105.732 115.124 104.192 115.124 102.653C115.039 102.615 114.954 102.577 114.868 102.539C114.608 102.823 114.333 103.093 114.087 103.392C112.116 105.793 110.099 108.152 108.213 110.615C107.285 111.828 106.139 112.008 104.803 111.847C104.092 111.761 103.898 111.543 103.808 110.842C103.775 110.582 103.761 110.312 103.761 110.051C103.756 106.039 103.756 102.027 103.761 98.0107C103.761 97.7502 103.794 97.4897 103.822 97.0918C104.931 97.0302 106.001 96.9639 107.19 96.8976C107.432 97.9823 107.29 99.0007 107.313 100C107.337 101.061 107.318 102.122 107.318 103.178C107.318 104.183 107.318 105.187 107.318 106.196C107.427 106.262 107.541 106.333 107.65 106.399C107.773 106.177 107.863 105.926 108.024 105.732C110.179 103.093 112.358 100.474 114.494 97.8213C115.067 97.1108 115.678 96.7176 116.626 96.8502C117.251 96.9355 117.895 96.8644 118.61 96.8644C118.615 101.829 118.615 106.688 118.615 111.643Z" fill="white"/>
<path d="M100.027 104.557C100.216 109.356 96.4694 112.056 92.6042 112.179C91.42 112.217 90.2643 112.112 89.1369 111.715C86.2712 110.701 84.4097 108.247 84.2913 105.216C84.2582 104.354 84.2866 103.463 84.4666 102.625C85.0444 99.9628 86.7118 98.2244 89.2743 97.3528C91.0458 96.7513 92.8553 96.7086 94.6457 97.206C97.9235 98.1202 100.235 100.924 100.027 104.557ZM92.2632 100.067C89.5017 100.076 87.8864 101.748 87.9054 104.581C87.9196 107.167 89.7101 109.005 92.2158 109.01C94.6647 109.015 96.5499 107.073 96.4883 104.538C96.4173 101.531 94.3236 99.8396 92.2632 100.067Z" fill="white"/>
<path d="M68.4003 104.796C68.4003 108.903 65.5725 111.996 61.4516 112.365C60.239 112.474 59.0359 112.436 57.8564 112.057C54.4081 110.944 52.4045 108.021 52.575 104.341C52.7692 100.168 55.9239 97.1603 60.1348 97.1887C61.0727 97.1934 62.0389 97.2597 62.9437 97.4871C66.3304 98.3492 68.4003 101.172 68.4003 104.796ZM60.49 109.206C63.1047 109.447 64.8431 107.036 64.7862 104.711C64.7246 102.191 62.8821 100.23 60.4758 100.225C58.1028 100.22 56.1181 102.252 56.1654 104.715C56.2223 107.562 58.207 109.443 60.49 109.206Z" fill="white"/>
<path d="M51.8564 117.636C51.8564 122.643 51.8564 127.465 51.8564 132.353C50.8569 132.353 49.9333 132.353 48.877 132.353C48.877 130.937 48.877 129.558 48.877 128.057C47.6739 128.057 46.5844 128.01 45.5092 128.085C45.2013 128.104 44.8366 128.412 44.6329 128.692C43.9793 129.568 43.354 130.477 42.7809 131.411C42.2646 132.249 41.573 132.595 40.6067 132.533C39.901 132.49 39.1905 132.524 38.21 132.524C39.3941 130.79 40.4267 129.279 41.502 127.711C41.2367 127.541 41.0046 127.37 40.7536 127.228C38.9773 126.224 38.2763 124.651 38.3568 122.681C38.4326 120.777 39.3326 119.37 41.0141 118.498C41.5777 118.205 42.203 117.968 42.8235 117.873C45.7792 117.433 48.7681 117.688 51.8564 117.636ZM48.6023 120.729C46.8402 120.658 45.225 120.616 43.6335 120.999C42.473 121.279 42.0325 121.823 41.9946 122.965C41.9567 124.111 42.454 124.95 43.4487 125.258C45.2108 125.798 47.0013 125.499 48.8817 125.509C48.7823 123.851 48.6923 122.354 48.6023 120.729Z" fill="white"/>
<path d="M23.8281 112.652C19.6077 112.794 16.4294 109.99 16.0078 105.769C15.5958 101.653 18.1962 98.3231 22.3361 97.5795C24.5244 97.1863 26.547 97.5179 28.4322 98.6973C31.2126 100.44 32.4631 103.78 31.5868 107.129C30.7579 110.279 28.1101 112.438 24.856 112.609C24.5055 112.623 24.1644 112.637 23.8281 112.652ZM28.2001 105.044C28.1859 104.86 28.1764 104.595 28.1527 104.334C27.9348 102.075 26.4665 100.677 24.1265 100.502C22.0187 100.346 20.2993 101.582 19.7972 103.685C19.6598 104.263 19.6409 104.888 19.6788 105.485C19.8398 107.991 21.7677 109.743 24.1692 109.606C26.4949 109.478 28.2333 107.545 28.2001 105.044Z" fill="white"/>
<path d="M48.7065 112.179C47.6029 112.179 46.4898 112.179 45.2535 112.179C45.2535 108.28 45.2535 104.477 45.2535 100.612C43.4441 100.612 41.7578 100.612 40.0005 100.612C39.9626 101.048 39.9389 101.45 39.8915 101.858C39.6168 104.221 39.3421 106.589 39.0532 108.953C39.0247 109.176 38.9489 109.394 38.8779 109.612C38.049 112.292 36.069 113.254 33.3312 112.245C33.3312 111.828 33.3217 111.388 33.336 110.943C33.3454 110.493 33.3786 110.043 33.4023 109.602C33.5491 109.531 33.6438 109.465 33.748 109.446C35.6285 109.038 36.1638 108.442 36.2869 106.267C36.4243 103.847 36.4859 101.426 36.5995 99.0013C36.6753 97.3814 36.6848 97.3861 38.3047 97.3861C41.3362 97.3861 44.363 97.3813 47.3945 97.3813C47.8066 97.3813 48.2234 97.3813 48.6165 97.3813C48.8534 98.215 48.9244 110.649 48.7065 112.179Z" fill="white"/>
<path d="M30.8657 121C29.0042 121 27.3179 121 25.5369 121C25.4895 121.697 25.4516 122.331 25.3995 122.966C25.2527 124.775 25.1911 126.599 24.9069 128.39C24.7459 129.408 24.3148 130.426 23.808 131.336C22.9696 132.842 21.3591 133.292 19.545 132.823C19.0097 132.686 18.8439 132.269 18.8771 131.776C18.9245 131.104 19.0192 130.431 19.095 129.758C19.3081 129.697 19.4502 129.654 19.5923 129.621C21.307 129.2 21.6954 128.792 21.8186 126.983C21.9891 124.529 22.0838 122.066 22.2212 119.612C22.2544 119.049 22.3254 118.49 22.3775 117.964C23.2775 117.704 33.1346 117.656 34.385 117.898C34.4135 118.168 34.4656 118.457 34.4703 118.75C34.5319 122.914 34.5935 127.082 34.6456 131.246C34.6503 131.511 34.6361 131.776 34.5935 132.037C34.5271 132.425 34.295 132.624 33.883 132.619C33.163 132.61 32.443 132.615 31.723 132.619C31.1546 132.624 30.8988 132.307 30.8751 131.776C30.8609 131.473 30.8657 131.17 30.8657 130.867C30.8657 128.063 30.8609 125.263 30.8609 122.459C30.8657 122.014 30.8657 121.564 30.8657 121Z" fill="white"/>
<path d="M15.8867 118.129C15.8867 122.904 15.8867 127.693 15.8867 132.605C14.7736 132.681 13.7031 132.752 12.5095 132.837C12.5095 128.868 12.5095 125.017 12.5095 121.095C10.108 121.095 7.82015 121.095 5.42338 121.095C5.42338 124.946 5.42338 128.792 5.42338 132.761C4.21079 132.903 3.08819 132.799 1.98928 132.837C1.70981 131.984 1.6056 120.739 1.8377 118.196C2.61452 117.921 14.4705 117.855 15.8867 118.129Z" fill="white"/>
<path d="M10.9323 104.802C11.2639 105.001 11.5244 105.148 11.7802 105.309C13.7696 106.574 14.0775 109.051 12.4338 110.757C11.5954 111.623 10.5534 112.192 9.39286 112.448C6.3519 113.115 3.37726 112.902 0.525774 111.571C0.359989 111.495 0.217888 111.372 0 111.225C0.284202 110.463 0.558924 109.733 0.866809 108.909C1.2789 108.971 1.64363 109.013 2.00362 109.084C3.07885 109.293 4.15882 109.492 5.22931 109.738C6.43243 110.018 7.5645 109.719 8.67762 109.34C9.43076 109.084 9.70075 108.639 9.72444 107.891C9.74812 107.185 9.39287 106.721 8.78183 106.484C8.36974 106.323 7.90555 106.247 7.4603 106.233C6.40401 106.2 5.34299 106.223 4.1825 106.223C4.1825 105.432 4.1825 104.708 4.1825 103.86C4.54249 103.822 4.90722 103.784 5.2672 103.751C6.17191 103.661 7.08136 103.614 7.9766 103.476C8.81499 103.348 9.21761 102.922 9.27445 102.273C9.33129 101.615 9.02814 101.117 8.27027 100.79C7.34661 100.393 6.36612 100.255 5.37615 100.44C4.40986 100.615 3.46252 100.88 2.51044 101.122C2.15045 101.212 1.79994 101.335 1.40679 101.458C1.15101 100.814 0.928387 100.213 0.682078 99.6253C0.459454 99.0995 0.601556 98.7585 1.12733 98.5453C3.04569 97.7685 5.03037 97.2901 7.10978 97.4938C8.15659 97.598 9.21761 97.8016 10.2028 98.1569C10.9228 98.4127 11.6381 98.8863 12.1638 99.4405C13.367 100.719 13.2912 102.453 12.0975 103.746C11.7707 104.101 11.3775 104.405 10.9323 104.802Z" fill="white"/>
<path d="M83.3089 97.3738C83.3089 98.2974 83.3089 99.1595 83.3089 100.187C81.6321 100.187 79.9933 100.187 78.2549 100.187C78.2549 104.157 78.2549 107.96 78.2549 111.854C77.0423 111.854 75.9339 111.854 74.6739 111.854C74.6739 108.012 74.6739 104.18 74.6739 100.235C72.874 100.235 71.2256 100.235 69.5441 100.235C69.2457 99.2116 69.3783 98.288 69.4304 97.3832C70.2878 97.1417 82.1532 97.1322 83.3089 97.3738Z" fill="white"/>
<path d="M106.315 91.2716C106.722 91.2337 107.054 91.2005 107.385 91.1721C107.722 91.1437 108.058 91.1295 108.451 91.1011C108.982 92.2474 109.446 93.4457 111.075 93.2942C112.411 93.1663 112.932 92.2852 113.249 91.12C113.974 91.12 114.675 91.12 115.372 91.12C115.755 92.4984 115.239 93.8957 113.946 94.6062C112.07 95.6341 110.095 95.653 108.162 94.7957C106.95 94.2557 106.367 93.0431 106.315 91.2716Z" fill="white"/>
</svg>
