<svg width="262" height="121" viewBox="0 0 262 121" fill="none" xmlns="http://www.w3.org/2000/svg">
<path d="M126.983 52.3911C126.596 54.6629 126.137 56.9295 125.834 59.2169C125.322 63.1338 124.821 67.0612 124.476 70.999C124.115 75.1509 123.995 79.3237 123.677 83.4809C123.327 87.9462 124.136 92.3018 124.758 96.6835C124.93 97.8951 124.92 99.1485 124.847 100.376C124.773 101.614 124.162 101.963 122.486 101.948C121.348 101.937 120.773 101.478 120.695 100.355C120.559 98.4383 120.601 96.5007 120.376 94.5997C119.875 90.3903 119.248 86.1966 118.689 81.9925C118.115 77.6943 117.791 73.4118 118.997 69.145C119.802 66.2935 119.102 63.4524 118.684 60.6218C118.063 56.4124 117.41 52.1874 118.177 47.9519C118.58 45.7428 119.446 43.6172 120.115 41.4185C119.661 41.3454 118.945 41.267 118.251 41.1104C117.373 40.9067 116.788 40.4158 117.018 39.413C117.498 37.2613 117.901 35.0888 118.538 32.9841C119.201 30.8063 120.094 28.6911 120.914 26.5603C121.572 24.8473 121.504 23.1552 120.877 21.4579C120.34 20.0008 119.796 18.5437 119.243 17.0396C118.835 17.4 118.339 17.8335 117.838 18.2774C117.039 17.0292 117.373 16.1152 119.138 14.397C118.945 14.3187 118.7 14.2821 118.527 14.1463C117.128 13.0705 115.754 11.9581 114.349 10.8875C113.514 10.2503 112.626 9.6915 111.79 9.05958C111.143 8.56866 111.033 7.90539 111.472 7.22646C113.42 4.2026 115.958 1.81068 119.243 0.301368C120.533 -0.294003 121.065 -0.0224421 121.682 1.25186C122.387 2.7194 122.972 4.25483 123.745 5.68059C125.04 8.06729 127.071 8.80367 129.771 8.70445C131.934 8.62611 134.179 8.694 136.19 9.88996C137.981 10.9501 138.859 12.543 139.042 14.5119C139.256 16.7837 139.271 19.0764 139.47 21.3482C139.522 21.9332 139.893 22.5233 140.217 23.0456C140.499 23.4999 140.922 23.8707 141.282 24.2781C143.423 26.7066 144.186 26.9625 147.559 26.2052C147.032 26.7692 146.755 27.2602 146.337 27.4847C145.006 28.1845 144.964 29.2343 145.262 30.5034C145.601 31.95 145.382 33.381 144.442 34.5247C143.862 35.235 142.99 35.6998 141.982 36.4727C141.491 34.2061 140.984 32.3521 138.587 32.4931C137.835 35.0522 136.952 37.6896 136.305 40.3792C135.548 43.5179 136.018 46.6515 136.744 49.7537C137.987 55.0441 139.219 60.3346 140.431 65.6302C141.052 68.3407 142.013 70.8684 143.58 73.2081C146.395 77.4175 147.554 82.1387 147.831 87.1785C147.962 89.5756 148.714 91.9362 149.173 94.3177C149.513 96.0568 149.873 97.7959 150.155 99.5455C150.307 100.501 149.931 101.29 148.949 101.587C147.737 101.953 146.938 101.629 146.473 100.491C146.155 99.7021 145.94 98.8143 145.914 97.9682C145.789 93.2784 144.175 88.9541 142.781 84.5672C141.595 80.8487 139.809 77.4332 138.028 73.9811C135.208 68.5078 132.618 62.9145 129.928 57.3786C129.202 55.8797 128.466 54.3861 127.724 52.8924C127.635 52.7149 127.474 52.5686 127.348 52.4067C127.223 52.3963 127.103 52.3911 126.983 52.3911ZM131.182 12.9347C131.918 13.88 132.743 14.6634 133.218 15.6191C133.694 16.58 133.683 17.776 134.566 18.6273C134.816 17.5671 134.931 16.5487 134.9 15.5303C134.843 13.7599 134.634 13.5666 132.879 13.2324C132.31 13.1279 131.746 13.0339 131.182 12.9347ZM123.447 32.5872C123.04 33.3653 122.695 33.9137 122.444 34.5091C121.541 36.6346 121.76 36.9584 124.048 36.9062C124.147 36.9062 124.241 36.8331 124.403 36.7704C124.497 35.3655 124.533 33.9816 123.447 32.5872Z" fill="white"/>
<path d="M88.2008 98.3971C87.0414 98.3971 85.9603 98.3971 84.7643 98.3971C84.5659 96.8564 84.3518 95.3158 84.169 93.7803C82.7223 81.7841 81.2757 69.7932 79.829 57.797C79.0926 51.6761 78.3511 45.5501 77.6042 39.4293C77.5363 38.8913 77.4528 38.3482 77.317 37.8259C77.0036 36.5673 76.6798 35.3035 75.4316 34.4574C78.9046 34.4574 82.3724 34.4574 86.2266 34.4574C83.7668 35.669 84.2786 37.5857 84.4823 39.3196C85.5007 48.1144 86.5818 56.8987 87.642 65.6882C87.8665 67.5475 88.1068 69.4067 88.5455 71.2816C90.0339 58.9877 91.5171 46.6938 93.0108 34.3843C94.097 34.3843 95.0632 34.3843 96.0973 34.3843C97.5857 46.7043 99.0689 58.9773 100.552 71.2503C100.62 71.2555 100.683 71.2659 100.751 71.2711C100.949 69.7044 101.153 68.1428 101.341 66.5761C102.338 58.2931 103.351 50.0102 104.307 41.722C104.469 40.3275 104.432 38.8966 104.385 37.4917C104.344 36.2592 103.842 35.2147 102.693 34.4574C105.132 34.4574 107.576 34.4574 110.021 34.4574C110.036 34.541 110.078 34.6506 110.052 34.6715C108.193 36.0033 107.979 38.0871 107.733 40.0664C106.36 51.1539 105.054 62.2518 103.722 73.3497C102.766 81.3089 101.806 89.2681 100.845 97.2272C100.798 97.6189 100.719 98.0054 100.651 98.4284C99.5128 98.4284 98.4317 98.4284 97.2358 98.4284C95.7526 86.2912 94.2694 74.1749 92.7914 62.0586C92.7183 62.0533 92.6399 62.0481 92.5668 62.0429C91.1097 74.107 89.6631 86.1867 88.2008 98.3971Z" fill="white"/>
<path d="M24.0024 34.4381C27.4701 34.4381 30.9327 34.4381 34.4318 34.4381C34.4161 34.5739 34.4318 34.7462 34.39 34.7671C33.2724 35.2319 32.9277 36.2138 32.7449 37.2687C32.6195 37.979 32.5412 38.7101 32.536 39.4361C32.5203 46.0792 32.5255 52.7275 32.5308 59.3705C32.5308 59.5847 32.5621 59.7988 32.583 60.1017C34.7921 60.1017 36.9752 60.1017 39.2417 60.1017C39.2574 59.7205 39.2887 59.3653 39.2887 59.0102C39.294 52.5447 39.294 46.0844 39.2835 39.6189C39.2835 38.8982 39.2261 38.167 39.1321 37.4515C38.9702 36.2712 38.6255 35.1849 37.3407 34.5634C40.8764 34.2501 44.3703 34.3702 47.9425 34.459C45.7595 35.8482 45.9893 38.0051 45.984 40.021C45.9632 57.6314 45.9684 75.2419 45.9788 92.8523C45.9788 93.7924 46.0624 94.7376 46.2034 95.6673C46.3653 96.7327 46.7257 97.7197 47.9738 98.0592C47.3106 98.5449 38.5733 98.665 37.2206 98.2159C39.1791 97.2601 39.2574 95.4845 39.2626 93.761C39.2992 83.7024 39.2835 73.6438 39.2783 63.5852C39.2783 63.4441 39.247 63.3031 39.2208 63.0942C37.0117 63.0942 34.8235 63.0942 32.5256 63.0942C32.5256 63.5434 32.5256 63.935 32.5256 64.3215C32.5256 73.8736 32.5203 83.4204 32.536 92.9724C32.536 93.8028 32.6039 94.6436 32.7345 95.4636C32.9172 96.5864 33.2776 97.6414 34.4527 98.3099C30.9744 98.3099 27.4962 98.3099 23.8143 98.3099C26.2324 96.7797 25.8929 94.419 25.8981 92.2517C25.9295 74.8606 25.919 57.4643 25.9086 40.0732C25.9086 39.2063 25.8146 38.3341 25.7258 37.4724C25.6057 36.2346 25.1148 35.2006 24.0024 34.4381Z" fill="white"/>
<path d="M51.6344 66.3149C51.6344 58.5072 51.6344 50.6995 51.6344 42.8918C51.6344 38.0191 54.0367 34.8804 58.8206 33.7941C63.171 32.807 67.0409 33.7262 70.0386 37.2358C71.1876 38.5832 71.6681 40.2231 71.6681 41.9778C71.6785 58.2461 71.6838 74.5143 71.6629 90.7825C71.6576 94.0205 70.0752 96.4281 67.2707 97.9113C63.1449 100.1 59.0138 99.9533 55.1074 97.3577C52.7886 95.8171 51.6083 93.5714 51.6187 90.7146C51.6501 82.5831 51.6344 74.4464 51.6344 66.3149ZM64.9989 66.4873C64.9989 57.8439 65.0198 49.2006 64.9676 40.5625C64.9623 39.5493 64.743 38.4317 64.2729 37.5491C63.0613 35.2721 60.1732 35.3034 58.9564 37.5857C58.5281 38.3847 58.267 39.377 58.267 40.2805C58.2252 57.7081 58.22 75.141 58.2827 92.5687C58.2879 93.6497 58.7527 94.8718 59.3742 95.7701C60.4814 97.363 62.5861 97.3107 63.8813 95.8484C64.7743 94.8405 64.9989 93.6184 64.9989 92.3075C64.9937 83.6956 64.9989 75.0888 64.9989 66.4873Z" fill="white"/>
<path d="M190.35 98.047C192.523 96.7466 192.476 94.8299 192.476 92.955C192.486 75.0522 192.481 57.144 192.476 39.2411C192.476 37.3662 192.513 35.4548 190.335 34.1491C190.993 34.1074 191.332 34.0708 191.672 34.0708C195.557 34.0656 199.443 34.0656 203.328 34.0708C208.431 34.076 211.57 37.2043 211.575 42.2754C211.58 46.5997 211.564 50.9187 211.58 55.243C211.59 58.1781 210.734 60.664 208.165 62.3666C207.95 62.5076 207.804 62.9724 207.846 63.2492C209.193 71.8873 210.567 80.5201 211.94 89.153C212.181 90.6571 212.405 92.1664 212.666 93.6653C212.948 95.2791 213.027 96.9973 215.058 98.0418C211.376 98.0418 208.055 98.0418 204.446 98.0418C206.201 96.872 206.112 95.3365 205.872 93.822C204.31 84.0819 202.707 74.3471 201.14 64.607C201.02 63.8759 200.785 63.479 199.97 63.5886C199.516 63.6513 199.046 63.5991 198.424 63.5991C198.424 64.137 198.424 64.5601 198.424 64.9831C198.424 74.1695 198.424 83.3612 198.43 92.5477C198.43 93.2736 198.456 94.0048 198.55 94.7203C198.717 96.0207 198.978 97.295 200.31 98.0575C197.103 98.047 193.886 98.047 190.35 98.047ZM198.534 36.797C198.534 44.9233 198.534 52.9085 198.534 60.9774C199.605 60.9774 200.576 60.9774 201.553 60.9774C204.174 60.9774 205.292 59.8598 205.303 57.2067C205.313 54.0523 205.303 50.8979 205.303 47.7434C205.303 45.2418 205.323 42.7402 205.297 40.2386C205.276 38.3011 204.211 36.8962 202.655 36.8126C201.318 36.7395 199.976 36.797 198.534 36.797Z" fill="white"/>
<path d="M168.078 95.7763C168.078 95.254 168.078 94.8623 168.078 94.4706C168.078 83.7958 168.078 73.1209 168.078 62.446C168.078 61.8663 168.088 61.2814 168.01 60.7069C167.832 59.4012 167.618 58.1008 166.25 57.2809C169.644 57.2809 173.044 57.2809 176.726 57.2809C174.601 58.4559 174.6 60.3256 174.59 62.1117C174.559 72.4576 174.569 82.8087 174.585 93.1546C174.585 93.8753 174.58 94.6482 174.815 95.3063C175.165 96.262 175.734 97.1394 176.225 98.0742C176.157 98.0794 175.854 98.1317 175.556 98.1317C171.598 98.1369 167.639 98.1525 163.68 98.1317C159.377 98.1055 155.805 95.5622 154.885 91.8437C154.656 90.9037 154.577 89.9061 154.577 88.9348C154.556 73.9043 154.567 58.8685 154.567 43.838C154.567 38.6155 157.444 35.1164 162.641 34.3069C164.558 34.0092 166.547 34.1137 168.501 34.0823C170.344 34.051 172.188 34.0771 174.141 34.0771C174.141 35.8319 174.141 37.4926 174.141 39.1534C174.141 40.7828 174.141 42.4123 174.141 44.0469C173.243 44.4543 172.809 44.1357 172.47 43.3001C171.665 41.3312 170.532 39.5555 168.877 38.1872C168.239 37.665 167.519 37.2002 166.761 36.8816C163.743 35.6125 161.304 37.2367 161.293 40.5113C161.273 46.6112 161.288 52.7112 161.288 58.8111C161.288 69.6688 161.273 80.5264 161.32 91.3789C161.325 92.319 161.607 93.3165 162.009 94.173C162.516 95.254 163.487 95.8181 164.756 95.7867C165.795 95.7502 166.845 95.7763 168.078 95.7763Z" fill="white"/>
<path d="M18.6756 51.5508C16.6701 51.5508 14.7221 51.5508 12.6644 51.5508C12.6644 50.3079 12.6644 49.1224 12.6644 47.9316C12.6644 45.0644 12.6644 42.1921 12.6644 39.3249C12.6644 39.0324 12.6801 38.7399 12.6435 38.4527C12.4712 36.9538 11.3692 35.8205 10.0793 35.8049C8.71096 35.7892 7.54111 36.8964 7.45232 38.4736C7.35832 40.1396 7.40531 41.8108 7.39487 43.482C7.38964 44.3907 7.47321 45.3047 7.3792 46.203C6.99795 49.958 8.42372 53.0706 10.6694 55.9378C12.8629 58.7371 15.0772 61.5207 17.1401 64.4192C19.2971 67.4483 20.3677 70.8377 20.2789 74.6293C20.164 79.7108 20.2476 84.7976 20.2476 89.8791C20.2476 94.8823 17.7042 98.1256 12.795 99.0917C8.58038 99.9221 4.86194 98.935 2.05221 95.4777C1.11215 94.3235 0.589894 92.9605 0.579449 91.4616C0.553336 87.4663 0.568999 83.4711 0.574221 79.4811C0.574221 79.3401 0.616009 79.199 0.647345 78.9901C2.74681 78.9901 4.82538 78.9901 7.0293 78.9901C7.0293 79.4184 7.0293 79.8049 7.0293 80.1965C7.0293 84.4111 7.0293 88.6205 7.0293 92.8351C7.0293 94.1564 7.38443 95.3472 8.38194 96.2768C9.45778 97.2795 10.8261 97.2638 11.8967 96.2454C12.8211 95.368 13.1971 94.2452 13.2024 93.0074C13.2128 87.2679 13.218 81.5335 13.2024 75.7939C13.1971 74.0339 12.6122 72.4097 11.6251 70.9996C9.8808 68.5085 7.9589 66.1374 6.18846 63.6619C4.48591 61.2752 2.79381 58.8781 1.25316 56.3817C0.292213 54.8254 -0.021142 53.0184 0.0101933 51.1539C0.0571962 48.104 0.0989715 45.0488 0.00496565 42.004C-0.104708 38.4893 1.60828 36.1443 4.5538 34.5776C8.26181 32.6034 13.1344 33.1832 16.174 35.8989C17.8817 37.4239 18.8114 39.2988 18.7748 41.6489C18.7226 44.8451 18.7591 48.0413 18.7539 51.2375C18.7487 51.3106 18.7174 51.3785 18.6756 51.5508Z" fill="white"/>
<path d="M260.421 51.2224C258.416 51.2224 256.473 51.2224 254.373 51.2224C254.373 50.8255 254.373 50.439 254.373 50.0525C254.373 46.4594 254.373 42.8611 254.373 39.268C254.373 38.9755 254.384 38.6883 254.368 38.3958C254.305 36.8134 253.292 35.6174 251.934 35.513C250.597 35.4137 249.234 36.4948 249.193 38.0564C249.104 41.7539 249.072 45.4672 249.255 49.1595C249.37 51.5096 250.765 53.442 252.148 55.2751C254.285 58.1162 256.546 60.8684 258.63 63.7513C260.896 66.8848 262.103 70.3578 261.993 74.3269C261.852 79.5182 261.956 84.7094 261.956 89.9058C261.956 94.2353 259.836 97.1652 255.71 98.523C251.318 99.9697 246.325 98.5805 243.792 95.2015C242.899 94.0107 242.33 92.6842 242.325 91.1801C242.304 87.1849 242.32 83.1896 242.32 79.1944C242.32 79.0534 242.356 78.9124 242.388 78.6982C244.482 78.6982 246.566 78.6982 248.775 78.6982C248.775 79.1422 248.775 79.5338 248.775 79.9203C248.775 84.0618 248.723 88.2033 248.811 92.3395C248.832 93.3788 249.13 94.5278 249.657 95.4104C250.697 97.1495 252.854 97.1913 253.976 95.5096C254.509 94.7106 254.89 93.6452 254.906 92.6894C254.99 86.9551 255.037 81.2103 254.885 75.4811C254.843 73.9927 254.311 72.3581 253.527 71.0838C251.992 68.5926 250.091 66.3312 248.388 63.9393C246.566 61.375 244.712 58.8212 243.03 56.1629C242.012 54.5492 241.703 52.6586 241.719 50.7315C241.745 47.8278 241.724 44.924 241.724 42.0151C241.724 37.7326 243.881 34.8445 248.012 33.5859C252.216 32.3063 256.906 33.7686 259.225 37.0797C260.035 38.2391 260.478 39.5082 260.468 40.9444C260.447 44.031 260.463 47.1175 260.458 50.204C260.463 50.533 260.437 50.8516 260.421 51.2224Z" fill="white"/>
<path d="M225.163 95.8015C230.312 96.2454 233.937 92.2188 234.929 85.0169C235.248 85.0013 235.582 84.9856 236.062 84.9595C236.062 87.2209 236.062 89.3882 236.062 91.5556C236.062 93.6968 236.062 95.8381 236.062 98.0367C229.555 98.0367 223.1 98.0367 216.311 98.0367C218.53 96.7729 218.468 94.851 218.473 93.0231C218.499 77.8046 218.489 62.5861 218.489 47.3728C218.489 44.5422 218.536 41.7064 218.473 38.8757C218.431 37.1523 218.442 35.3453 216.645 34.1807C220.108 34.1807 223.575 34.1807 227.273 34.1807C224.871 35.7161 225.184 38.014 225.184 40.1709C225.168 58.2566 225.173 76.3423 225.173 94.428C225.163 94.8876 225.163 95.3524 225.163 95.8015Z" fill="white"/>
<path d="M178.246 34.1699C181.797 34.1699 185.265 34.1699 189.082 34.1699C186.821 35.4703 186.905 37.434 186.899 39.2933C186.873 55.4518 186.884 71.6104 186.889 87.7689C186.889 89.8736 186.899 91.9783 186.957 94.083C186.999 95.5975 187.249 97.0546 188.738 98.0208C185.275 98.0208 181.813 98.0208 178.094 98.0208C180.319 96.6995 180.225 94.6314 180.225 92.6833C180.246 74.7073 180.23 56.7366 180.183 38.7605C180.183 37.7317 179.927 36.6715 179.583 35.6949C179.389 35.1518 178.778 34.7548 178.246 34.1699Z" fill="white"/>
<path d="M86.2812 105.625C89.0022 105.625 91.6814 105.552 94.3501 105.651C95.9273 105.714 97.1128 106.612 97.5776 108.158C98.0947 109.881 97.4679 111.281 96.2197 112.164C96.9248 113.025 97.8335 113.762 98.2095 114.712C98.5177 115.496 98.3767 116.577 98.126 117.438C97.6246 119.172 96.2406 120.003 94.5068 120.055C91.791 120.133 89.0701 120.076 86.2812 120.076C86.2812 115.266 86.2812 110.456 86.2812 105.625ZM89.2268 117.559C90.7674 117.559 92.2141 117.59 93.6503 117.548C94.6582 117.517 95.2536 116.942 95.3424 115.919C95.4311 114.89 94.935 114.075 93.8748 113.981C92.3498 113.845 90.7988 113.945 89.2215 113.945C89.2268 115.125 89.2268 116.274 89.2268 117.559ZM89.2842 108.085C89.2842 109.176 89.2842 110.205 89.2842 111.213C90.7518 111.213 92.1253 111.286 93.4831 111.187C94.324 111.124 94.8201 110.508 94.8149 109.615C94.8097 108.706 94.3083 108.148 93.4361 108.106C92.0731 108.033 90.7047 108.085 89.2842 108.085Z" fill="white"/>
<path d="M177.269 113.7C177.942 114.457 178.663 115.125 179.217 115.909C180.131 117.204 180.945 118.572 181.937 120.134C180.674 120.134 179.613 120.17 178.559 120.102C178.323 120.087 178.073 119.721 177.895 119.47C177.007 118.191 176.114 116.911 175.274 115.601C174.454 114.321 173.315 113.867 171.774 114.123C171.774 116.076 171.774 118.024 171.774 120.061C170.751 120.061 169.8 120.061 168.787 120.061C168.787 115.261 168.787 110.493 168.787 105.547C169.68 105.547 170.573 105.531 171.461 105.552C173.414 105.589 175.383 105.531 177.326 105.725C179.347 105.928 180.512 107.239 180.679 109.109C180.877 111.334 179.979 112.759 177.932 113.475C177.702 113.548 177.483 113.626 177.269 113.7ZM171.785 111.616C173.252 111.616 174.626 111.668 175.989 111.6C177.023 111.548 177.587 110.885 177.618 109.918C177.655 108.931 177.128 108.205 176.114 108.148C174.689 108.064 173.252 108.127 171.78 108.127C171.785 109.307 171.785 110.42 171.785 111.616Z" fill="white"/>
<path d="M220.815 105.61C220.815 106.373 220.815 107.12 220.815 107.997C218.282 107.997 215.76 107.997 213.138 107.997C213.138 109.104 213.138 110.091 213.138 111.172C215.483 111.172 217.828 111.172 220.251 111.172C220.251 112.034 220.251 112.807 220.251 113.695C217.911 113.695 215.566 113.695 213.127 113.695C213.127 115.011 213.127 116.223 213.127 117.612C215.765 117.612 218.423 117.612 221.113 117.612C221.113 118.531 221.113 119.278 221.113 120.082C217.446 120.082 213.838 120.082 210.14 120.082C210.14 115.283 210.14 110.483 210.14 105.616C213.681 105.61 217.217 105.61 220.815 105.61Z" fill="white"/>
<path d="M58.0479 120.041C57.8755 120.093 57.8442 120.114 57.8076 120.114C54.9614 120.291 54.9353 120.302 53.9116 117.638C53.6766 117.033 53.3894 116.798 52.7418 116.824C51.363 116.871 49.9843 116.865 48.6055 116.824C48.0519 116.808 47.702 116.954 47.5819 117.513C47.5662 117.586 47.5401 117.654 47.514 117.722C46.5217 120.391 46.5217 120.391 43.4874 120.051C44.0828 118.511 44.6677 117.001 45.2579 115.487C46.4434 112.447 47.655 109.418 48.7935 106.368C49.0442 105.7 49.368 105.517 50.0469 105.527C52.2822 105.553 52.2822 105.527 53.0969 107.564C54.6219 111.366 56.1469 115.168 57.6719 118.97C57.8024 119.299 57.9069 119.639 58.0479 120.041ZM52.5903 114.249C51.9636 112.552 51.363 110.933 50.6684 109.063C49.9895 110.938 49.4046 112.552 48.7883 114.249C50.0939 114.249 51.2795 114.249 52.5903 114.249Z" fill="white"/>
<path d="M134.835 105.542C136.773 110.389 138.69 115.183 140.669 120.139C139.635 120.139 138.742 120.186 137.859 120.108C137.603 120.087 137.295 119.747 137.16 119.476C136.752 118.64 136.642 117.408 135.995 117C135.285 116.556 134.104 116.838 133.128 116.838C130.396 116.828 130.375 116.828 129.472 119.33C129.258 119.92 128.997 120.217 128.328 120.155C127.613 120.092 126.882 120.139 126.004 120.139C126.37 119.178 126.699 118.316 127.033 117.455C128.464 113.778 129.916 110.112 131.31 106.419C131.571 105.72 131.906 105.453 132.642 105.526C133.358 105.599 134.089 105.542 134.835 105.542ZM133.211 109.057C132.522 110.973 131.942 112.572 131.352 114.217C132.699 114.217 133.869 114.217 135.128 114.217C134.506 112.535 133.916 110.953 133.211 109.057Z" fill="white"/>
<path d="M13.046 114.749C14.0278 115.062 14.9157 115.349 15.7983 115.631C15.3178 118.237 13.5213 119.961 10.9727 120.326C7.96969 120.755 5.17563 119.491 4.02667 116.968C2.74192 114.148 2.74192 111.229 4.20424 108.471C6.12091 104.852 11.7665 104.11 14.5031 107.077C15.1089 107.735 15.4536 108.628 16.002 109.552C14.8165 109.834 13.9129 110.054 12.9468 110.283C12.4036 108.722 11.3852 107.813 9.71402 107.86C8.08458 107.902 6.80506 108.847 6.53349 110.591C6.3037 112.064 6.31937 113.626 6.54394 115.098C6.79462 116.77 8.03236 117.72 9.51035 117.783C11.1502 117.856 12.0903 117.182 12.7588 115.464C12.8371 115.266 12.9154 115.067 13.046 114.749Z" fill="white"/>
<path d="M256.52 120.108C255.408 120.108 254.51 120.108 253.481 120.108C253.481 116.112 253.481 112.143 253.481 108.054C251.998 108.054 250.634 108.054 249.209 108.054C249.209 107.192 249.209 106.445 249.209 105.625C253 105.625 256.792 105.625 260.672 105.625C260.672 106.367 260.672 107.135 260.672 108.012C259.32 108.012 257.993 108.012 256.52 108.012C256.52 112.075 256.52 116.039 256.52 120.108Z" fill="white"/>
</svg>
