<svg width="32" height="30" viewBox="0 0 32 30" fill="none" xmlns="http://www.w3.org/2000/svg">
<g clip-path="url(#clip0_216_8)">
<path d="M15.6428 30C23.9271 30 30.6428 23.2843 30.6428 15C30.6428 6.71573 23.9271 0 15.6428 0C7.35855 0 0.642822 6.71573 0.642822 15C0.642822 23.2843 7.35855 30 15.6428 30Z" fill="white"/>
<path fill-rule="evenodd" clip-rule="evenodd" d="M18.256 20.8785C18.4706 21.0039 18.7473 21.0353 18.994 20.9583C19.2406 20.8807 19.422 20.7069 19.4766 20.4963C20.0559 18.2501 21.4612 12.5647 21.9886 10.5215C22.0286 10.3675 21.9619 10.2074 21.8152 10.1046C21.6686 10.0017 21.4652 9.97203 21.2839 10.0276C18.4886 10.8812 9.88018 13.5459 6.36159 14.6201C6.13826 14.6883 5.99293 14.8654 6.00027 15.0595C6.00827 15.2542 6.16693 15.4231 6.39559 15.4797C7.97355 15.8691 10.0448 16.4109 10.0448 16.4109C10.0448 16.4109 11.0128 18.8226 11.5175 20.0491C11.5808 20.2031 11.7268 20.3241 11.9195 20.3659C12.1115 20.4072 12.3168 20.3637 12.4601 20.2521C13.2708 19.6207 14.5241 18.6444 14.5241 18.6444C14.5241 18.6444 16.9054 20.0849 18.256 20.8785ZM10.9162 16.1062L12.0355 19.1521L12.2841 17.2232C12.2841 17.2232 16.6087 14.0052 19.074 12.1709C19.146 12.117 19.156 12.0268 19.096 11.9636C19.0366 11.9003 18.9273 11.8855 18.8453 11.9284C15.988 13.4337 10.9162 16.1062 10.9162 16.1062Z" fill="black"/>
</g>
<defs>
<clipPath id="clip0_216_8">
<rect width="31" height="30" fill="white" transform="translate(0.5)"/>
</clipPath>
</defs>
</svg>
