<svg width="31" height="30" viewBox="0 0 31 30" fill="none" xmlns="http://www.w3.org/2000/svg">
<path fill-rule="evenodd" clip-rule="evenodd" d="M15.4286 30C23.7129 30 30.4286 23.2843 30.4286 15C30.4286 6.71573 23.7129 0 15.4286 0C7.14432 0 0.428589 6.71573 0.428589 15C0.428589 23.2843 7.14432 30 15.4286 30ZM15.435 18.6166C15.3967 18.4677 15.3945 18.3117 15.4286 18.1617L16.4314 12.3748H21V10.2857H9.85715V12.3748H14.3213L13.402 17.8135C13.3178 18.2603 13.3345 18.7202 13.4509 19.1597C13.5674 19.5991 13.7806 20.007 14.075 20.3535C14.3694 20.6999 14.7376 20.9762 15.1525 21.162C15.5674 21.3479 16.0187 21.4387 16.4732 21.4277H21V19.3386H16.4732C16.3202 19.3545 16.1656 19.3338 16.0222 19.2782C15.8788 19.2225 15.7507 19.1334 15.6486 19.0184C15.5465 18.9033 15.4733 18.7656 15.435 18.6166Z" fill="white"/>
</svg>
