<svg width="31" height="30" viewBox="0 0 31 30" fill="none" xmlns="http://www.w3.org/2000/svg">
<path fill-rule="evenodd" clip-rule="evenodd" d="M15.7142 30C23.9984 30 30.7142 23.2842 30.7142 15C30.7142 6.7158 23.9984 0 15.7142 0C7.43003 0 0.714233 6.7158 0.714233 15C0.714233 23.2842 7.43003 30 15.7142 30ZM8.21423 10.2C8.33603 16.0464 11.2592 19.56 16.3841 19.56H16.6745V16.215C18.5579 16.4025 19.9817 17.7798 20.5535 19.56H23.2142C22.4834 16.899 20.5628 15.4281 19.3634 14.8659C20.5628 14.1726 22.2491 12.486 22.652 10.2H20.2346C19.7099 12.0552 18.155 13.7415 16.6745 13.9008V10.2H14.2574V16.6833C12.7583 16.3086 10.8656 14.4912 10.781 10.2H8.21423Z" fill="white"/>
</svg>
