<svg width="187" height="146" viewBox="0 0 187 146" fill="none" xmlns="http://www.w3.org/2000/svg">
<path d="M15.1895 93.5229V98.1443L5.32737 121.827H15.1895V126.544H0V121.923L9.85779 98.2396H0.467769V93.5229H15.1895Z" fill="white"/>
<path d="M23.4395 107.439H30.5643V112.156H23.4395V121.827H32.4051V126.544H18.2507V93.5229H32.4051V98.2396H23.4395V107.439Z" fill="white"/>
<path d="M40.238 102.627V126.544H35.5647V93.5229H42.0745L47.4062 113.286V93.5229H52.0275V126.544H46.7002L40.238 102.627Z" fill="white"/>
<path d="M68.2563 108.193H74.9524V112.909H68.2563V126.544H63.0632V93.5229H76.7931V98.2396H68.2563V108.193Z" fill="white"/>
<path d="M95.4732 126.544H90.2412L89.3446 120.554H82.9778L82.0812 126.544H77.3169L82.6009 93.5229H90.1978L95.4732 126.544ZM83.6318 116.071H88.6343L86.1309 99.3701L83.6318 116.071Z" fill="white"/>
<path d="M112.928 114.231V118.61C112.928 123.894 110.286 126.913 105.188 126.913C100.09 126.913 97.4526 123.881 97.4526 118.61V101.446C97.4526 96.1658 100.095 93.147 105.188 93.147C110.282 93.147 112.928 96.1788 112.928 101.446V104.655H108.021V101.116C108.021 98.7602 106.981 97.8636 105.331 97.8636C103.681 97.8636 102.641 98.7602 102.641 101.116V118.948C102.641 121.308 103.681 122.157 105.331 122.157C106.981 122.157 108.021 121.291 108.021 118.948V114.231H112.928Z" fill="white"/>
<path d="M114.573 93.5229H130.616V98.2396H125.189V126.544H120V98.2396H114.573V93.5229Z" fill="white"/>
<path d="M132.453 101.449C132.453 96.1653 135.234 93.1421 140.332 93.1421C145.43 93.1421 148.21 96.1739 148.21 101.449V118.609C148.21 123.894 145.425 126.912 140.332 126.912C135.238 126.912 132.453 123.881 132.453 118.609V101.449ZM137.651 118.947C137.651 121.308 138.69 122.204 140.34 122.204C141.991 122.204 143.026 121.308 143.026 118.947V101.116C143.026 98.7596 141.991 97.8631 140.34 97.8631C138.69 97.8631 137.651 98.7596 137.651 101.116V118.947Z" fill="white"/>
<path d="M162.407 126.544C162.122 125.678 161.935 125.175 161.935 122.486V117.31C161.935 114.243 160.896 113.113 158.54 113.113H156.747V126.54H151.549V93.5229H159.38C164.755 93.5229 167.068 96.022 167.068 101.116V103.714C167.068 107.114 165.985 109.345 163.672 110.415C166.271 111.502 167.137 114.001 167.137 117.444V122.538C167.137 124.144 167.185 125.323 167.704 126.548L162.407 126.544ZM156.747 98.2526V108.396H158.773C160.71 108.396 161.888 107.53 161.888 104.905V101.648C161.888 99.2921 161.086 98.2526 159.246 98.2526H156.747Z" fill="white"/>
<path d="M174.907 115.599L168.349 93.5229H173.772L177.735 108.57L181.698 93.5229H186.653L180.096 115.599V126.544H174.907V115.599Z" fill="white"/>
<path d="M93.0558 2.46308e-07C85.5224 2.95015e-07 78.1582 2.23396 71.8945 6.41937C65.6308 10.6048 60.7489 16.5536 57.8662 23.5137C54.9835 30.4737 54.2295 38.1322 55.6995 45.5208C57.1695 52.9093 60.7975 59.696 66.1247 65.0226C71.4519 70.3492 78.239 73.9765 85.6277 75.4456C93.0165 76.9148 100.675 76.1599 107.635 73.2764C114.594 70.3929 120.543 65.5104 124.727 59.2462C128.912 52.982 131.145 45.6175 131.144 38.0842C131.144 33.0825 130.159 28.1298 128.245 23.509C126.331 18.8881 123.525 14.6896 119.988 11.1531C116.451 7.61656 112.252 4.8114 107.631 2.89774C103.01 0.984089 98.0574 -0.000568575 93.0558 2.46308e-07ZM92.8392 70.4338C86.455 70.4329 80.2143 68.539 74.9064 64.9915C69.5985 61.4439 65.4617 56.4021 63.0191 50.5036C60.5766 44.6051 59.9379 38.1147 61.184 31.8532C62.43 25.5917 65.5048 19.8403 70.0194 15.3263C74.5341 10.8122 80.2859 7.73823 86.5476 6.49303C92.8092 5.24784 99.2995 5.88735 105.198 8.3307C111.096 10.7741 116.137 14.9115 119.684 20.2199C123.231 25.5283 125.124 31.7692 125.124 38.1535C125.124 42.3929 124.289 46.5909 122.666 50.5076C121.044 54.4243 118.666 57.9831 115.668 60.9806C112.67 63.9782 109.111 66.3559 105.194 67.9779C101.277 69.5998 97.0787 70.4344 92.8392 70.4338Z" fill="white"/>
<path d="M3.91525 145.732V142.951L1.33386 138.291H3.02303L4.68621 141.465H4.72086L6.38836 138.291H8.05587L5.46582 142.951V145.732H3.91525Z" fill="white"/>
<path d="M17.6368 141.998C17.6368 144.363 16.2551 145.844 14.0549 145.844C11.8546 145.844 10.4773 144.363 10.4773 141.998C10.4773 139.633 11.8546 138.143 14.0549 138.143C16.2551 138.143 17.6368 139.624 17.6368 141.998ZM12.0625 141.998C12.0625 143.553 12.8378 144.536 14.0549 144.536C15.2719 144.536 16.0472 143.553 16.0472 141.998C16.0472 140.443 15.2719 139.442 14.0549 139.442C12.8378 139.442 12.0625 140.434 12.0625 141.998Z" fill="white"/>
<path d="M24.3113 145.861C22.0937 145.861 20.738 144.406 20.738 141.989C20.738 139.572 22.0937 138.16 24.2766 138.16C26.0091 138.16 27.3085 139.187 27.538 140.694H25.9788C25.881 140.324 25.659 139.998 25.35 139.772C25.0409 139.545 24.6635 139.432 24.2809 139.451C23.0552 139.451 22.3233 140.386 22.3233 141.967C22.3233 143.548 23.1029 144.566 24.3373 144.566C25.3508 144.566 26.0697 143.942 26.0697 143.02V142.898H24.4542V141.764H27.5813V142.604C27.5813 144.631 26.3599 145.861 24.2896 145.861" fill="white"/>
<path d="M35.0525 143.925H32.4538L31.8907 145.732H30.2969L32.8739 138.291H34.6974L37.2961 145.732H35.6459L35.0525 143.925ZM32.7786 142.76H34.7147L33.7618 139.728H33.7272L32.7786 142.76Z" fill="white"/>
<path d="M60.0904 145.732V140.707H60.0514L58.0331 145.658H57.0585L55.0402 140.707H55.0012V145.732H53.6152V138.291H55.417L57.5263 143.566H57.5653L59.6746 138.291H61.4763V145.732H60.0904Z" fill="white"/>
<path d="M69.962 145.732H65.0461V138.291H69.962V139.573H66.5967V141.37H69.7715V142.565H66.5967V144.441H69.962V145.732Z" fill="white"/>
<path d="M76.2508 138.291C78.477 138.291 79.7894 139.62 79.7894 141.981C79.7894 144.341 78.49 145.732 76.2508 145.732H73.4182V138.291H76.2508ZM74.9515 144.441H76.0472C77.4376 144.441 78.1869 143.596 78.1869 141.989C78.1869 140.382 77.4159 139.577 76.0472 139.577H74.9515V144.441Z" fill="white"/>
<path d="M84.6801 138.291H83.1252V145.732H84.6801V138.291Z" fill="white"/>
<path d="M90.0194 145.732V139.573H87.8755V138.291H93.7226V139.573H91.5743V145.732H90.0194Z" fill="white"/>
<path d="M100.202 143.925H97.6029L97.0355 145.732H95.4373L98.036 138.291H99.8637L102.462 145.732H100.808L100.202 143.925ZM97.9277 142.76H99.8681L98.9152 139.728H98.9022L97.9277 142.76Z" fill="white"/>
<path d="M106.287 145.732V139.573H104.143V138.291H109.99V139.573H107.842V145.732H106.287Z" fill="white"/>
<path d="M114.742 138.291H113.187V145.732H114.742V138.291Z" fill="white"/>
<path d="M125.24 141.998C125.24 144.363 123.854 145.844 121.658 145.844C119.462 145.844 118.081 144.363 118.081 141.998C118.081 139.633 119.458 138.143 121.658 138.143C123.859 138.143 125.24 139.624 125.24 141.998ZM119.662 141.998C119.662 143.553 120.441 144.536 121.658 144.536C122.875 144.536 123.651 143.553 123.651 141.998C123.651 140.443 122.871 139.442 121.658 139.442C120.446 139.442 119.662 140.434 119.662 141.998Z" fill="white"/>
<path d="M128.573 145.732V138.291H129.868L133.337 143.137H133.376V138.291H134.861V145.732H133.575L130.106 140.859H130.058V145.732H128.573Z" fill="white"/>
<path d="M151.687 145.732V138.291H156.551V139.573H153.242V141.569H156.261V142.804H153.242V145.732H151.687Z" fill="white"/>
<path d="M166.729 141.998C166.729 144.363 165.343 145.844 163.147 145.844C160.951 145.844 159.57 144.363 159.57 141.998C159.57 139.633 160.947 138.143 163.147 138.143C165.348 138.143 166.729 139.624 166.729 141.998ZM161.155 141.998C161.155 143.553 161.93 144.536 163.147 144.536C164.364 144.536 165.14 143.553 165.14 141.998C165.14 140.443 164.36 139.442 163.147 139.442C161.935 139.442 161.155 140.434 161.155 141.998Z" fill="white"/>
<path d="M176.99 141.998C176.99 144.363 175.604 145.844 173.408 145.844C171.212 145.844 169.831 144.363 169.831 141.998C169.831 139.633 171.208 138.143 173.408 138.143C175.609 138.143 176.99 139.624 176.99 141.998ZM171.412 141.998C171.412 143.553 172.191 144.536 173.408 144.536C174.625 144.536 175.401 143.553 175.401 141.998C175.401 140.443 174.621 139.442 173.408 139.442C172.196 139.442 171.412 140.434 171.412 141.998Z" fill="white"/>
<path d="M183.154 138.291C185.385 138.291 186.693 139.62 186.693 141.981C186.693 144.341 185.393 145.732 183.154 145.732H180.33V138.291H183.154ZM181.876 144.441H182.972C184.358 144.441 185.112 143.596 185.112 141.989C185.112 140.382 184.336 139.577 182.972 139.577H181.876V144.441Z" fill="white"/>
<path d="M46.0966 142.115C46.0966 142.36 46.0238 142.6 45.8875 142.803C45.7512 143.007 45.5575 143.166 45.3309 143.26C45.1043 143.353 44.855 143.377 44.6146 143.329C44.3742 143.281 44.1535 143.163 43.9804 142.989C43.8074 142.815 43.6897 142.594 43.6424 142.354C43.5951 142.113 43.6203 141.864 43.7147 141.638C43.8091 141.411 43.9686 141.218 44.1728 141.083C44.3771 140.947 44.617 140.875 44.8622 140.876C45.19 140.877 45.5039 141.008 45.7353 141.24C45.9667 141.472 46.0966 141.787 46.0966 142.115Z" fill="white"/>
<path d="M144.42 142.115C144.419 142.359 144.346 142.597 144.21 142.799C144.074 143.002 143.881 143.159 143.655 143.252C143.43 143.345 143.182 143.369 142.942 143.321C142.703 143.272 142.484 143.154 142.311 142.982C142.139 142.809 142.022 142.589 141.975 142.35C141.928 142.11 141.952 141.862 142.046 141.637C142.139 141.412 142.298 141.219 142.5 141.084C142.703 140.948 142.942 140.876 143.186 140.876C143.348 140.876 143.509 140.908 143.659 140.97C143.809 141.033 143.946 141.124 144.06 141.239C144.175 141.354 144.266 141.491 144.327 141.641C144.389 141.791 144.421 141.952 144.42 142.115Z" fill="white"/>
</svg>
