<svg width="101" height="120" viewBox="0 0 101 120" fill="#000" xmlns="http://www.w3.org/2000/svg">
<path d="M52.7154 67.1112H27.7217C24.7203 67.1112 22.3191 64.7934 22.3191 61.8961V26.2334C22.3191 23.3362 24.7749 20.9657 27.7763 20.9657H89.7148C95.7177 20.9657 100.575 16.2774 100.575 10.4828C100.575 4.6883 95.7177 0 89.7148 0H13.5877C6.3843 0 0.545166 5.58382 0.545166 12.4846C0.545166 12.5373 0.545166 12.5373 0.545166 12.5899V70.7986C5.94773 67.2692 13.424 66.005 18.6083 70.6406C19.0449 71.0093 18.772 71.8522 18.0626 71.7468C15.1157 71.4308 12.0597 72.6423 11.1866 75.3289C10.368 77.7521 11.5686 80.2806 14.4063 81.0707C17.4077 81.9663 20.1909 79.7538 22.7557 78.7003C25.7026 77.5414 28.5403 77.3833 31.378 78.8583C31.9783 79.1744 31.76 80.1225 30.996 80.0699C29.3589 79.9118 27.0123 80.6493 27.0123 82.4404C27.0123 84.4421 29.9046 84.9689 31.6509 84.5475C33.7246 84.0207 35.5254 82.7564 37.6537 82.335C39.4546 81.9663 41.31 82.177 43.0563 82.8618C46.6034 84.2841 49.4957 87.7608 53.6977 87.3921C55.6623 87.234 57.2994 86.3912 59.1548 85.9171C61.8288 84.0207 63.5205 80.9654 63.5205 77.4887C63.5751 71.7995 58.7183 67.1112 52.7154 67.1112Z" fill="#000"/>
<path d="M89.6606 35.6632H54.8986C48.8958 35.6632 42.9475 40.3515 42.9475 46.146C42.9475 51.9406 48.8958 56.6289 54.8986 56.6289H73.3438C76.3452 56.6289 78.8009 58.9993 78.8009 61.8966V77.5945C78.8009 79.0695 79.1283 80.4391 79.6741 81.756C80.0561 81.5453 80.4381 81.3873 80.8201 81.2293C83.0029 80.3864 85.1312 80.2284 87.2595 81.3346C87.696 81.5453 87.5323 82.2828 86.9866 82.2301C85.7315 82.1248 83.9852 82.6516 83.9852 84.0212C83.9852 85.5488 86.1681 85.9176 87.4778 85.6015C89.0058 85.1801 90.37 84.2846 91.9526 83.9685C93.3169 83.7051 94.6812 83.8631 95.9909 84.3372C96.4275 84.4953 96.9186 84.7587 97.3552 85.0221C99.3198 83.1257 100.52 80.4918 100.52 77.6472V46.1987C100.52 40.3515 95.6635 35.6632 89.6606 35.6632Z" fill="#000"/>
<path d="M89.0605 110.307L99.7019 110.413L99.7565 102.827L89.1151 102.722V101.879L99.7565 101.984L99.8111 94.3987L81.3114 94.2407L81.0931 118.525L99.5928 118.683L99.6474 111.15L89.0059 111.045L89.0605 110.307ZM72.2525 94.188L65.8131 104.882L59.4828 94.0826L50.4785 94.03L65.7039 120L81.3659 94.2934L72.2525 94.188ZM62.0477 118.472L46.2766 91.5541L30.0143 118.209L39.0731 118.262L40.3283 116.155L51.6791 116.26L52.9888 118.367L62.0477 118.472ZM44.9123 108.674L46.1128 106.673L47.2588 108.674H44.9123ZM33.0703 93.9246L27.2311 103.933L21.01 92.555L14.5706 103.828L8.89515 93.7139L0 93.6612L14.516 119.473L20.9009 108.306L27.0674 119.526L42.02 93.9246H33.0703Z" fill="#000"/>
</svg>
